HIERARCHY
ROOT Hips
{
    OFFSET 0.000000 0.000000 0.000000
    CHANNELS 6 Xposition Yposition Zposition Zrotation Xrotation Yrotation
    JOINT Spine
    {
        OFFSET -0.000000 14.517291 0.000000
        CHANNELS 3 Zrotation Xrotation Yrotation
        JOINT Spine1
        {
            OFFSET -0.000000 37.558300 0.000000
            CHANNELS 3 Zrotation Xrotation Yrotation
            JOINT Neck
            {
                OFFSET -0.000000 37.404057 3.400369
                CHANNELS 3 Zrotation Xrotation Yrotation
                JOINT Head
                {
                    OFFSET -0.000000 24.785618 -3.540803
                    CHANNELS 3 Zrotation Xrotation Yrotation
                    End Site
                    {
                        OFFSET -0.000000 35.408028 0.000000
                    }
                }
            }
            JOINT LeftShoulder
            {
                OFFSET 6.992933 33.973492 -0.192664
                CHANNELS 3 Zrotation Xrotation Yrotation
                JOINT LeftArm
                {
                    OFFSET 21.527611 0.000000 0.000000
                    CHANNELS 3 Zrotation Xrotation Yrotation
                    JOINT LeftForeArm
                    {
                        OFFSET 56.353916 0.000000 0.000000
                        CHANNELS 3 Zrotation Xrotation Yrotation
                        JOINT LeftHand
                        {
                            OFFSET 47.774071 0.000000 0.000000
                            CHANNELS 3 Zrotation Xrotation Yrotation
                            End Site
                            {
                                OFFSET 26.556021 0.000000 0.000000
                            }
                        }
                    }
                }
            }
            JOINT RightShoulder
            {
                OFFSET -7.065357 33.973492 -0.192664
                CHANNELS 3 Zrotation Xrotation Yrotation
                JOINT RightArm
                {
                    OFFSET -21.527611 0.000000 0.000000
                    CHANNELS 3 Zrotation Xrotation Yrotation
                    JOINT RightForeArm
                    {
                        OFFSET -56.353916 0.000000 0.000000
                        CHANNELS 3 Zrotation Xrotation Yrotation
                        JOINT RightHand
                        {
                            OFFSET -47.774071 0.000000 0.000000
                            CHANNELS 3 Zrotation Xrotation Yrotation
                            End Site
                            {
                                OFFSET -26.556021 0.000000 0.000000
                            }
                        }
                    }
                }
            }
        }
    }
    JOINT LeftUpLeg
    {
        OFFSET 17.704014 0.000000 0.000000
        CHANNELS 3 Zrotation Xrotation Yrotation
        JOINT LeftLeg
        {
            OFFSET -0.000000 -81.181816 0.000000
            CHANNELS 3 Zrotation Xrotation Yrotation
            JOINT LeftFoot
            {
                OFFSET -0.000000 -62.821102 0.000000
                CHANNELS 3 Zrotation Xrotation Yrotation
                JOINT LeftToeBase
                {
                    OFFSET -0.000000 -11.507608 26.556021
                    CHANNELS 3 Zrotation Xrotation Yrotation
                    End Site
                    {
                        OFFSET -0.000000 0.000000 7.081605
                    }
                }
            }
        }
    }
    JOINT RightUpLeg
    {
        OFFSET -17.704014 0.000000 0.000000
        CHANNELS 3 Zrotation Xrotation Yrotation
        JOINT RightLeg
        {
            OFFSET -0.000000 -81.181816 0.000000
            CHANNELS 3 Zrotation Xrotation Yrotation
            JOINT RightFoot
            {
                OFFSET -0.000000 -62.821102 0.000000
                CHANNELS 3 Zrotation Xrotation Yrotation
                JOINT RightToeBase
                {
                    OFFSET -0.000000 -11.507608 26.556021
                    CHANNELS 3 Zrotation Xrotation Yrotation
                    End Site
                    {
                        OFFSET -0.000000 0.000000 7.081605
                    }
                }
            }
        }
    }
}
MOTION
Frames:    5
Frame Time:    0.008333
23.157780    156.686783    -33.590519    1.095056    -0.903098    -43.336632    1.082802    -0.919077    2.436706    2.456756    -1.630196    0.843453    16.344938    3.755507    14.941699    -11.356523    5.616819    12.624766    8.173979    -4.534547    -14.658449    -29.044531    -31.462816    -52.310574    29.100473    -63.032497    -79.204407    -31.561943    -39.982433    -43.982006    -5.554068    5.209151    -0.528799    34.232708    9.729673    79.616096    3.860511    -7.221621    100.692307    12.060805    -9.193882    24.863729    17.155741    -18.778643    4.114302    -11.860797    19.079144    -4.004263    -8.340702    -0.549641    37.441547    0.000000    0.000000    0.000000    -14.872897    4.918300    -7.993756    5.585807    23.303839    -2.492628    6.027442    -20.515028    -16.588211    0.000000    0.000000    0.000000    
23.147472    156.684235    -33.602768    1.084045    -0.899195    -43.299664    1.071307    -0.916943    2.445641    2.471109    -1.647048    0.847045    16.347239    3.756037    14.927580    -11.346553    5.647152    12.613738    8.195879    -4.601853    -14.649046    -29.314680    -31.748796    -52.468643    28.522154    -63.056984    -80.402824    -31.500324    -40.014950    -44.075119    -5.550171    5.208280    -0.516504    34.222450    9.744730    79.596947    3.840852    -7.224971    100.702843    12.072212    -9.173803    24.848652    17.170815    -18.795107    4.105895    -11.870242    19.094803    -4.035704    -8.338794    -0.541543    37.455605    0.000000    0.000000    0.000000    -14.849668    4.935446    -8.006542    5.585387    23.304134    -2.477005    6.006162    -20.521288    -16.615921    0.000000    0.000000    0.000000    
23.140768    156.680710    -33.613796    1.074288    -0.893466    -43.264343    1.065009    -0.925828    2.457500    2.489043    -1.652985    0.851377    16.360210    3.741814    14.931022    -11.365961    5.710111    12.618206    8.196895    -4.665977    -14.651399    -29.563105    -32.035381    -52.587326    27.957008    -63.035431    -81.545410    -31.478634    -39.970676    -44.185768    -5.558206    5.211627    -0.507307    34.220753    9.747926    79.592247    3.834773    -7.211253    100.699303    12.048936    -9.158707    24.838366    17.180576    -18.809566    4.099392    -11.870413    19.103098    -4.052494    -8.338525    -0.534676    37.442596    0.000000    0.000000    0.000000    -14.833477    4.949609    -7.998377    5.606310    23.305626    -2.484880    5.995515    -20.531544    -16.649101    0.000000    0.000000    0.000000    
23.134687    156.678009    -33.625847    1.058569    -0.887187    -43.229530    1.069006    -0.922809    2.478024    2.488469    -1.665390    0.858490    16.383821    3.724787    14.926934    -11.380275    5.762825    12.612570    8.209660    -4.732716    -14.661870    -29.770161    -32.253254    -52.704983    27.538286    -63.060505    -82.526329    -31.378582    -40.038242    -44.096729    -5.552927    5.203968    -0.509981    34.223095    9.764875    79.575249    3.837727    -7.198925    100.712753    12.050508    -9.153240    24.815248    17.195532    -18.820126    4.081677    -11.876834    19.105791    -4.069318    -8.338397    -0.527660    37.446804    0.000000    0.000000    0.000000    -14.806344    4.969876    -8.003672    5.610343    23.294992    -2.489884    5.990629    -20.540501    -16.673956    0.000000    0.000000    0.000000    
23.130835    156.673630    -33.639454    1.043362    -0.886194    -43.194046    1.064746    -0.916795    2.493897    2.497963    -1.677830    0.864247    16.359243    3.726357    14.979965    -11.330245    5.747928    12.674245    8.219888    -4.791456    -14.660497    -29.988567    -32.459988    -52.828171    27.007225    -63.063877    -83.550362    -31.292877    -40.121929    -44.076820    -5.556111    5.210043    -0.509719    34.215000    9.776900    79.573204    3.835881    -7.209600    100.716957    12.080432    -9.151967    24.845404    17.202957    -18.832321    4.076654    -11.872785    19.122086    -4.069222    -8.340922    -0.525247    37.418751    0.000000    0.000000    0.000000    -14.785828    4.997156    -8.010709    5.620531    23.282240    -2.480719    5.949772    -20.540417    -16.708960    0.000000    0.000000    0.000000    
